<?xml version="1.0" encoding="UTF-8"?>
<svg id="Layer_1" data-name="Layer 1" xmlns="http://www.w3.org/2000/svg" width="60" height="60" viewBox="0 0 60 60">
  <defs>
    <style>
      .cls-1 {
        fill: #e30312;
      }
    </style>
  </defs>
  <path class="cls-1" d="M43.4,33.4l-2.4-4h-8s-2.4,3.9-2.4,3.9c-.2.3-.6.4-1,.2-.6-.3-2-3.5-2.7-4.1h-8.1s-2.2,3.7-2.2,3.7c-.7.8-1.1.4-1.6-.2-.7-1.1-1.3-2.4-2-3.5-.5-.1-1,0-1.5,0-1.7-.2-3.2-1.9-3.3-3.5-.4-4.3.3-9.1,0-13.4.2-1.9,1.8-3.4,3.7-3.6h36.1c1.9.2,3.3,1.6,3.6,3.5-.2,4.3.3,9,0,13.3s-1.2,3.1-2.8,3.6-1.3.1-2.1.2l-2.3,3.8c-.3.4-.8.4-1.2,0ZM44,31.3c0-.1,0-.2.1-.3.3-.6,1.5-2.6,1.8-2.9s1.3-.1,1.9-.2c1.2-.1,2-.9,2.3-2.1,0-4.5.2-9.1-.1-13.7-.4-1.1-1.3-1.6-2.4-1.7-12,0-24.1-.2-36.1.1-1.1.4-1.7,1.1-1.8,2.3.3,4.1-.3,8.6,0,12.6.1,1.3,1,2.3,2.3,2.4s1.5-.5,2.6,1.2.9,1.5,1.3,2.2c.1,0,1.6-2.8,1.9-3s.3-.3.5-.4h9.5c.1,0,.2.2.3.2.6.6,1.1,2.1,1.7,2.9s0,.2.2.2l1.8-3,.4-.3h9.4c.2,0,.3.1.4.3.2.2,1.8,3.2,1.9,3.1Z"/>
  <path class="cls-1" d="M22.9,48.7c.2.1.6-.6.7-.8.7-.8,1.6-1.5,2.7-1.8s4.9-.3,6.3-.2c1.8.1,3.4,1.3,4.4,2.8,1-1.4,2.6-2.6,4.4-2.8,1.5-.1,5.3-.2,6.6.3,1.4.5,2.7,1.7,3.3,3.1s1,2.7,0,3-1-1.4-1.4-2.3-1.6-2.2-2.8-2.5-5.3-.3-6.4,0c-1.3.4-2.4,1.4-2.8,2.8s0,2-1,2-.8-1.3-.9-2c-.4-1.3-1.6-2.4-2.8-2.8s-5.3-.3-6.3,0-2.4,1.4-2.8,2.7,0,2.3-1.2,2.1c-.8-.1-.5-.8-.6-1.3-.3-1.7-1.3-3-3-3.5s-5.2-.3-6.3,0-2.3,1.4-2.8,2.5-.2,1.2-.4,1.9c-1.1.9-1.5,0-1.4-1.1.2-2.2,2.2-4.3,4.3-4.8s5.2-.3,6.5,0,3.2,1.3,3.9,2.7Z"/>
  <path class="cls-1" d="M33.3,36.8c2.1,2.1,1.8,5.8-.7,7.4-3.8,2.4-8.4-1.2-7.1-5.5,1-3.3,5.3-4.4,7.8-2ZM29.3,37.1c-3.4.5-3.3,6.3.7,6.4s4.2-7.1-.7-6.4Z"/>
  <path class="cls-1" d="M15.7,35.4c5.6-.5,7,7.9,1.7,9.4s-8.5-8.8-1.7-9.4ZM15.4,37.1c-4,.6-2.9,7.3,1.4,6.3s2.9-7-1.4-6.3Z"/>
  <path class="cls-1" d="M43.6,35.4c5.8-.4,6.9,8.2,1.4,9.4-6.7,1.5-8-9-1.4-9.4ZM43.4,37.1c-3.6.5-3.2,6.5.7,6.4s4-7.1-.7-6.4Z"/>
  <path class="cls-1" d="M19.3,17.1c.9.1,2,0,2.9.2s1,.4.8,1-2.1,1.7-2.4,2.3c-.1.4.6,2.4.6,3s-.6.9-1.1.7-2.3-1.5-2.6-1.5l-2.6,1.5c-2.2.4-.5-2.7-.5-3.8l-2.4-2.1c-.2-.3-.2-.7,0-1,.4-.5,2.8-.3,3.5-.5.5-.5,1-2.8,1.5-3.1s.5-.2.8,0c.5.2,1.2,2.6,1.5,3.2ZM20.3,18.7c-.7-.1-1.4,0-2-.3l-.9-1.8c-.2.5-.5,1.5-.9,1.8s-1.4.2-1.9.3c.2.4,1.3,1,1.4,1.4s-.2,1.5-.4,2c.1.1,1.4-.9,1.9-.9s1.2.7,1.8.9c.1-.1-.4-1.5-.3-1.9.1-.6,1.1-1,1.5-1.5Z"/>
  <path class="cls-1" d="M29.7,13.9c.2,0,.5,0,.6,0,.5.2,1.2,2.6,1.6,3.2.9.2,2,.1,2.9.3s.9.4.8,1-2.1,1.9-2.5,2.4c0,.9.9,2.7.6,3.5s-.7.4-1.1.3l-2.5-1.5c-.2,0-2.3,1.5-2.8,1.6s-1.1-.2-1-.8.8-2.5.6-3c-.4-.7-2.3-1.8-2.4-2.4s.3-.9.8-.9c.9-.1,1.9,0,2.9-.3.3-.5,1.1-3,1.6-3.2ZM30.1,16.7c-.2,0-.2,0-.2.1-.2.4-.4,1.4-.8,1.6s-1.5.2-2,.3c.4.5,1.5,1,1.5,1.7s-.4,1.6-.4,1.7c.5-.1,1.3-.9,1.8-.9s1.3.7,1.9.9c0,0-.4-1.5-.4-1.9s1.2-1,1.4-1.5c-.5-.1-1.5,0-1.9-.3s-.6-1.3-.8-1.7Z"/>
  <path class="cls-1" d="M44.4,17.1c.9.1,2,0,2.9.2s1,.3.8,1-2,1.8-2.4,2.3c0,.8.8,2.6.6,3.3-.3,1.6-3-.8-3.7-1l-2.6,1.5c-2.2.4-.4-2.7-.5-3.8l-2.3-2c-.5-.7-.1-1.2.6-1.4s1.9-.1,2.9-.2c.5-1,.8-2.3,1.5-3.1.4-.1.8-.1,1,.2.5.6.9,2.2,1.3,3ZM45.5,18.7c-.6-.1-1.5,0-1.9-.3s-.6-1.3-.9-1.8c0,0-.6,1.6-.8,1.8-.4.4-1.5.2-2.1.3.2.4,1.3,1,1.4,1.3.2.6-.2,1.4-.2,2.1,0,0,1.4-.9,1.8-.9s1.3.7,1.8.9c0-.6-.5-1.4-.3-2s1.2-1,1.4-1.4Z"/>
</svg>